<svg xmlns="http://www.w3.org/2000/svg" viewBox="0 0 64 64" role="img" aria-label="Discord">
  <defs>
    <linearGradient id="discord-frame" x1="8" y1="8" x2="56" y2="56" gradientUnits="userSpaceOnUse">
      <stop stop-color="#6ee7b7"/>
      <stop offset="0.46" stop-color="#3f83ff"/>
      <stop offset="1" stop-color="#5865f2"/>
    </linearGradient>
    <linearGradient id="discord-body" x1="15" y1="14" x2="49" y2="50" gradientUnits="userSpaceOnUse">
      <stop stop-color="#8ea1ff"/>
      <stop offset="0.56" stop-color="#5865f2"/>
      <stop offset="1" stop-color="#3f83ff"/>
    </linearGradient>
    <filter id="discord-glow" x="-24%" y="-24%" width="148%" height="148%">
      <feGaussianBlur stdDeviation="1.35" result="blur"/>
      <feMerge>
        <feMergeNode in="blur"/>
        <feMergeNode in="SourceGraphic"/>
      </feMerge>
    </filter>
  </defs>
  <path d="M12 10h40v6h4v36h-6v4H14v-4H8V16h4v-6Z" fill="#060a11"/>
  <path d="M14 12h36v4h4v34h-4v4H14v-4h-4V16h4v-4Z" fill="none" stroke="url(#discord-frame)" stroke-width="3"/>
  <rect x="15" y="47" width="5" height="5" fill="#fbbf24"/>
  <rect x="47" y="14" width="4" height="4" fill="#6ee7b7"/>
  <path
    fill="url(#discord-body)"
    filter="url(#discord-glow)"
    d="M21 25.4C24.4 23 28.2 22 32 22s7.6 1 11 3.4c2.3 5 3 10.5 2.1 16.6-2.6 2-5.2 3.3-7.9 4l-1.6-3.1c1.4-.4 2.7-1 3.9-1.8-2.3 1-4.8 1.5-7.5 1.5s-5.2-.5-7.5-1.5c1.2.8 2.5 1.4 3.9 1.8L26.8 46c-2.7-.7-5.3-2-7.9-4-.9-6.1-.2-11.6 2.1-16.6Z"
  />
  <path d="M24 28.6c2-.9 4-1.4 6-1.6l.5 2.3c-2 .2-3.8.7-5.6 1.5L24 28.6Zm16 0-.9 2.2c-1.8-.8-3.6-1.3-5.6-1.5L34 27c2 .2 4 .7 6 1.6Z" fill="#dbeafe"/>
  <rect x="24.7" y="33.2" width="5.1" height="5.8" rx="2.55" fill="#f8fbff"/>
  <rect x="34.2" y="33.2" width="5.1" height="5.8" rx="2.55" fill="#f8fbff"/>
  <path d="M27.4 41c2.8 1.3 6.4 1.3 9.2 0" fill="none" stroke="#f8fbff" stroke-width="2.8" stroke-linecap="square"/>
</svg>
