<svg xmlns="http://www.w3.org/2000/svg" viewBox="0 0 64 64" role="img" aria-label="GitHub">
  <defs>
    <linearGradient id="github-a" x1="9" y1="8" x2="55" y2="56" gradientUnits="userSpaceOnUse">
      <stop stop-color="#f8fbff"/>
      <stop offset="0.46" stop-color="#7cc4ff"/>
      <stop offset="1" stop-color="#6ee7b7"/>
    </linearGradient>
    <filter id="github-glow" x="-25%" y="-25%" width="150%" height="150%">
      <feGaussianBlur stdDeviation="1.5" result="blur"/>
      <feMerge>
        <feMergeNode in="blur"/>
        <feMergeNode in="SourceGraphic"/>
      </feMerge>
    </filter>
  </defs>
  <rect x="9" y="12" width="5" height="5" fill="#3f83ff" opacity="0.84"/>
  <rect x="50" y="44" width="5" height="5" fill="#fbbf24" opacity="0.88"/>
  <path
    fill="url(#github-a)"
    filter="url(#github-glow)"
    d="M32 8.5C18.7 8.5 8.5 18.7 8.5 32c0 10.5 6.8 19.4 16.2 22.4 1.2.2 1.6-.5 1.6-1.1v-4.2c-6.6 1.4-8-2.8-8-2.8-1-2.7-2.6-3.4-2.6-3.4-2.1-1.4.2-1.4.2-1.4 2.3.2 3.6 2.4 3.6 2.4 2.1 3.5 5.4 2.5 6.7 1.9.2-1.5.8-2.5 1.5-3.1-5.3-.6-10.8-2.6-10.8-11.8 0-2.6.9-4.8 2.4-6.5-.2-.6-1-3 .3-6.4 0 0 2-.6 6.5 2.5 1.9-.5 3.9-.8 5.9-.8s4 .3 5.9.8c4.5-3.1 6.5-2.5 6.5-2.5 1.3 3.4.5 5.8.3 6.4 1.5 1.7 2.4 3.9 2.4 6.5 0 9.2-5.6 11.2-10.9 11.8.9.8 1.7 2.2 1.7 4.5v6.7c0 .6.4 1.3 1.7 1.1C48.7 51.4 55.5 42.5 55.5 32 55.5 18.7 45.3 8.5 32 8.5Z"
  />
</svg>
